<svg version="1.2" xmlns="http://www.w3.org/2000/svg" viewBox="0 0 40 40" width="40" height="40"><style>.a{fill:#d9d9d9}.b{fill:#f33}</style><path class="a" d="m20 40c-11.1 0-20-8.9-20-20 0-11.1 8.9-20 20-20 11.1 0 20 8.9 20 20 0 11.1-8.9 20-20 20z"/><path  d="m11.9 31.5v-8.5q0-1.7 0.8-2.6 0.9-0.8 2.4-0.8 1.4 0 2.2 0.8 0.8 0.8 0.8 2.4v8.7h4.9v-8.5q0-1.6 0.8-2.5 0.8-0.9 2.3-0.9 1.4 0 2.2 0.8 0.8 0.8 0.8 2.4v8.7h4.9v-9.3q0-3.3-1.7-5.1-1.7-1.8-4.6-1.8-1.8 0-3.2 0.9-1.5 0.9-2.3 2.4-0.7-1.6-2.1-2.5-1.4-0.8-3.2-0.8-1.8 0-3.1 0.8-1.3 0.8-1.9 2.1v-2.7h-4.9v16z"/><path class="b" d="m9.5 13.9c-1.4 0-2.5-1.1-2.5-2.4 0-1.4 1.1-2.5 2.5-2.5 1.3 0 2.4 1.1 2.4 2.5 0 1.3-1.1 2.4-2.4 2.4z"/></svg>