<?xml version="1.0" encoding="UTF-8"?>
<svg width="40px" height="40px" viewBox="0 0 40 40" version="1.1" xmlns="http://www.w3.org/2000/svg" xmlns:xlink="http://www.w3.org/1999/xlink">
    <!-- Generator: Sketch 64 (93537) - https://sketch.com -->
    <title>MX</title>
    <desc>Created with Sketch.</desc>
    <g id="MX" stroke="none" stroke-width="1" fill="none" fill-rule="evenodd">
        <circle id="Oval" fill="#D9D9D9" cx="20" cy="20" r="20"></circle>
        <g id="Group" transform="translate(4.000000, 8.000000)">
            <path d="M3.00336092,20.8102345 L3.00336092,15.6179588 C3.00336092,14.9396886 3.17899606,14.4192916 3.53026634,14.0567678 C3.88153663,13.6942441 4.35575151,13.5129822 4.95291099,13.5129822 C5.52665245,13.5129822 5.97744932,13.6854733 6.30530158,14.0304556 C6.63315384,14.3754379 6.79707998,14.8578284 6.79707998,15.4776271 L6.79707998,15.4776271 L6.79707998,20.8102345 L9.80044089,20.8102345 L9.80044089,15.6179588 C9.80044089,14.9513829 9.97314878,14.4339095 10.3185646,14.0655386 C10.6639803,13.6971677 11.135268,13.5129822 11.7324275,13.5129822 C12.3061689,13.5129822 12.759893,13.6854733 13.0935998,14.0304556 C13.4273066,14.3754379 13.59416,14.8578284 13.59416,15.4776271 L13.59416,15.4776271 L13.59416,20.8102345 L16.5799574,20.8102345 L16.5799574,15.1267976 C16.5799574,13.8053401 16.2345416,12.7733168 15.54371,12.0307278 C14.8528785,11.2881388 13.9044487,10.9168443 12.6984207,10.9168443 C11.9841712,10.9168443 11.3313939,11.0981062 10.7400889,11.46063 C10.1487839,11.8231537 9.6833508,12.3084678 9.34378953,12.9165722 C9.05106429,12.2733848 8.61783094,11.7793001 8.04408948,11.4343178 C7.47034802,11.0893355 6.80878898,10.9168443 6.05941238,10.9168443 C5.34516281,10.9168443 4.72165805,11.0747176 4.18889812,11.3904641 C3.6561382,11.7062106 3.26095913,12.1389002 3.00336092,12.688533 L3.00336092,12.688533 L3.00336092,11.0220932 L0,11.0220932 L0,20.8102345 L3.00336092,20.8102345 Z" id="Path" fill="#000000" fill-rule="nonzero"></path>
            <polygon id="Path" fill="#000000" fill-rule="nonzero" points="21.5962611 20.8102345 24.0211927 16.6690969 26.9936896 20.8102345 32 20.8102345 26.8633169 13.6739345 31.7914037 6.2771855 26.8893914 6.2771855 24.4644598 10.3662333 21.5180375 6.2771855 16.5117271 6.2771855 21.5180375 13.2311713 16.6942488 20.8102345"></polygon>
            <circle id="Oval-Copy-2" fill="#9C2235" cx="19.0362473" cy="2.52452026" r="2.52452026"></circle>
        </g>
    </g>
</svg>