<svg version="1.2" xmlns="http://www.w3.org/2000/svg" viewBox="0 0 466 544" width="466" height="544">
	<title>image</title>
	<style>
		.s0 { fill: #ffffff } 
		.s1 { fill: #4899d3 } 
		.s2 { opacity: .3;fill: #4899d3 } 
		.s3 { fill: #667085 } 
	</style>
	<g id="Layer">
		<path id="Layer" class="s0" d="m80.5 68c0-4.4 3.6-8 8-8h209c4.4 0 8 3.6 8 8v60c0 4.4-3.6 8-8 8h-209c-4.4 0-8-3.6-8-8z"/>
		<path id="Layer" class="s1" d="m106.5 92c0-0.6 0.4-1 1-1h17c0.6 0 1 0.4 1 1v2c0 0.6-0.4 1-1 1h-17c-0.6 0-1-0.4-1-1z"/>
		<path id="Layer" class="s2" d="m106.5 98c0-0.6 0.4-1 1-1h17c0.6 0 1 0.4 1 1v8c0 0.6-0.4 1-1 1h-17c-0.6 0-1-0.4-1-1z"/>
		<path id="Layer" fill-rule="evenodd" class="s3" d="m145.9 91.9h2.4l4.2 10.2h0.2l4.1-10.2h2.4v13.1h-1.9v-9.5h-0.1l-3.8 9.5h-1.6l-3.9-9.5h-0.1v9.5h-1.9zm18.9 13.3q-0.9 0-1.7-0.3-0.7-0.4-1.2-1.1-0.4-0.6-0.4-1.6 0-0.8 0.3-1.4 0.3-0.5 0.9-0.8 0.5-0.3 1.2-0.5 0.6-0.1 1.3-0.2 0.9-0.1 1.5-0.2 0.5-0.1 0.8-0.2 0.2-0.2 0.2-0.5v-0.1q0-0.8-0.4-1.2-0.5-0.5-1.4-0.5-1 0-1.6 0.4-0.5 0.4-0.7 1l-1.8-0.4q0.3-0.9 0.9-1.5 0.6-0.6 1.4-0.8 0.8-0.3 1.7-0.3 0.6 0 1.3 0.2 0.6 0.1 1.2 0.5 0.6 0.3 1 1 0.3 0.7 0.3 1.8v6.5h-1.8v-1.4h-0.1q-0.2 0.4-0.6 0.8-0.3 0.3-0.9 0.6-0.6 0.2-1.4 0.2zm0.4-1.5q0.8 0 1.4-0.3 0.5-0.4 0.8-0.9 0.3-0.5 0.3-1.1v-1.2q-0.1 0.1-0.4 0.2-0.3 0.1-0.6 0.1-0.4 0.1-0.7 0.1-0.4 0.1-0.6 0.1-0.6 0.1-1.1 0.2-0.4 0.2-0.7 0.5-0.2 0.3-0.2 0.8 0 0.8 0.5 1.1 0.5 0.4 1.3 0.4zm11.6-8.5v1.5h-2v5.4q0 0.6 0.1 0.8 0.2 0.3 0.5 0.4 0.2 0.1 0.5 0.1 0.3 0 0.4 0 0.2 0 0.3-0.1l0.3 1.6q-0.1 0.1-0.4 0.1-0.3 0.1-0.8 0.1-0.7 0-1.4-0.3-0.6-0.2-1.1-0.8-0.4-0.6-0.4-1.5v-5.8h-1.4v-1.5h1.4v-2.4h2v2.4zm8.3 5.7v-5.7h1.9v9.8h-1.9v-1.7h-0.1q-0.3 0.8-1.1 1.3-0.7 0.5-1.8 0.5-1 0-1.7-0.4-0.7-0.4-1.1-1.2-0.4-0.9-0.4-2.1v-6.2h1.9v6q0 1 0.5 1.6 0.6 0.6 1.5 0.6 0.5 0 1.1-0.3 0.5-0.3 0.8-0.8 0.4-0.5 0.4-1.4zm4.5 4.1v-9.8h1.8v1.5h0.1q0.3-0.8 1-1.2 0.7-0.5 1.5-0.5 0.2 0 0.4 0 0.3 0.1 0.4 0.1v1.8q-0.1 0-0.4-0.1-0.3 0-0.6 0-0.6 0-1.2 0.3-0.5 0.3-0.8 0.8-0.3 0.5-0.3 1.1v6zm6.9 0v-9.8h1.9v9.8zm1-11.3q-0.5 0-0.9-0.4-0.3-0.3-0.3-0.8 0-0.5 0.3-0.8 0.4-0.3 0.9-0.3 0.5 0 0.8 0.3 0.4 0.3 0.4 0.8 0 0.5-0.4 0.8-0.3 0.4-0.8 0.4zm8.1 1.5v1.5h-2v5.4q0 0.6 0.1 0.8 0.2 0.3 0.5 0.4 0.2 0.1 0.5 0.1 0.3 0 0.4 0 0.2 0 0.3-0.1l0.4 1.6q-0.2 0.1-0.5 0.1-0.3 0.1-0.8 0.1-0.7 0-1.4-0.3-0.6-0.2-1-0.8-0.5-0.6-0.5-1.5v-5.8h-1.4v-1.5h1.4v-2.4h2v2.4zm3.3 13.5q-0.4 0-0.8-0.1-0.3-0.1-0.5-0.1l0.4-1.6q0.6 0.1 1 0.1 0.4 0 0.7-0.3 0.3-0.3 0.6-0.9l0.2-0.7-3.6-9.9h2l2.5 7.6h0.1l2.5-7.6h2.1l-4.1 11.1q-0.3 0.8-0.7 1.3-0.4 0.5-1 0.8-0.6 0.3-1.4 0.3zm13.9-3.7v-13.1h2v11.4h5.9v1.7zm10 0v-9.8h1.9v9.8zm1-11.3q-0.5 0-0.9-0.4-0.3-0.3-0.3-0.8 0-0.5 0.3-0.8 0.4-0.3 0.9-0.3 0.5 0 0.8 0.3 0.4 0.3 0.4 0.8 0 0.5-0.4 0.8-0.3 0.4-0.8 0.4zm10.9 3.9l-1.8 0.3q-0.1-0.4-0.3-0.7-0.3-0.3-0.7-0.4-0.3-0.2-0.9-0.2-0.9 0-1.4 0.3-0.5 0.4-0.5 1 0 0.4 0.3 0.7 0.4 0.3 1.2 0.5l1.6 0.4q1.3 0.3 2 1 0.6 0.6 0.6 1.7 0 0.8-0.5 1.5-0.5 0.7-1.4 1.1-0.9 0.4-2.1 0.4-1.6 0-2.7-0.7-1-0.7-1.2-2l1.8-0.3q0.2 0.7 0.7 1.1 0.6 0.3 1.4 0.3 1 0 1.5-0.3 0.6-0.4 0.6-1 0-0.5-0.4-0.8-0.3-0.3-1-0.5l-1.7-0.3q-1.3-0.3-2-1-0.7-0.7-0.7-1.7 0-0.9 0.5-1.6 0.5-0.6 1.4-1 0.8-0.4 1.9-0.4 1.6 0 2.5 0.7 1 0.7 1.3 1.9zm6.8-2.4v1.5h-2v5.4q0 0.6 0.2 0.8 0.1 0.3 0.4 0.4 0.3 0.1 0.6 0.1 0.2 0 0.4 0 0.2 0 0.3-0.1l0.3 1.6q-0.2 0.1-0.5 0.1-0.3 0.1-0.7 0.1-0.8 0-1.4-0.3-0.7-0.2-1.1-0.8-0.4-0.6-0.4-1.5v-5.8h-1.4v-1.5h1.4v-2.4h1.9v2.4z"/>
	</g>
	<g id="Layer">
		<path id="Layer" class="s0" d="m160.5 184c0-4.4 3.6-8 8-8h209c4.4 0 8 3.6 8 8v60c0 4.4-3.6 8-8 8h-209c-4.4 0-8-3.6-8-8z"/>
		<path id="Layer" fill-rule="evenodd" class="s1" d="m204.2 217.6h-3.7v-3.6c0-1.7-1.3-3-3-3h-6.8v-3.5c0-1.4 1.1-2.5 2.5-2.5h11.8c1.4 0 2.5 1.1 2.5 2.5v7.6 4.7c0 0.4-0.5 0.7-0.8 0.3z"/>
		<path id="Layer" fill-rule="evenodd" class="s2" d="m186.5 220v-5c0-1.1 0.9-2 2-2h8c1.1 0 2 0.9 2 2v5c0 1.1-0.9 2-2 2h-7.9l-1.2 1.2c-0.4 0.3-0.9 0.1-0.9-0.4v-2.5q0-0.1 0-0.3zm4.5-3h5c0.3 0 0.5-0.2 0.5-0.5 0-0.3-0.2-0.5-0.5-0.5h-5c-0.3 0-0.5 0.2-0.5 0.5 0 0.3 0.2 0.5 0.5 0.5zm3 1c-0.3 0-0.5 0.2-0.5 0.5 0 0.3 0.2 0.5 0.5 0.5h2c0.3 0 0.5-0.2 0.5-0.5 0-0.3-0.2-0.5-0.5-0.5z"/>
		<path id="Layer" fill-rule="evenodd" class="s3" d="m227.9 207.9v13.1h-2v-13.1zm4.7 7.3v5.8h-1.9v-9.8h1.8v1.6h0.1q0.4-0.8 1.1-1.3 0.7-0.4 1.8-0.4 1 0 1.8 0.4 0.7 0.4 1.1 1.2 0.5 0.8 0.5 2.1v6.2h-2v-6q0-1.1-0.5-1.7-0.6-0.6-1.5-0.6-0.7 0-1.2 0.3-0.5 0.3-0.8 0.8-0.3 0.6-0.3 1.4zm14.6-0.6v1.7h-5.8v-1.7zm13.6-2.4h-2q-0.1-0.7-0.4-1.2-0.4-0.4-0.8-0.8-0.5-0.3-1-0.5-0.6-0.2-1.2-0.2-1.1 0-2 0.6-0.9 0.6-1.4 1.7-0.6 1.1-0.6 2.7 0 1.6 0.6 2.7 0.5 1.1 1.4 1.6 0.9 0.6 2 0.6 0.6 0 1.2-0.2 0.5-0.2 1-0.5 0.4-0.3 0.7-0.8 0.4-0.5 0.5-1.1h2q-0.2 1-0.6 1.8-0.5 0.8-1.2 1.4-0.7 0.5-1.6 0.9-1 0.3-2 0.3-1.7 0-3.1-0.8-1.3-0.8-2.1-2.3-0.7-1.6-0.7-3.6 0-2.1 0.7-3.6 0.8-1.6 2.1-2.4 1.4-0.8 3.1-0.8 1 0 1.9 0.3 0.9 0.3 1.6 0.9 0.8 0.6 1.2 1.4 0.5 0.8 0.7 1.9zm4.1 3v5.8h-1.9v-13.1h1.9v4.9h0.1q0.3-0.8 1-1.3 0.8-0.4 1.9-0.4 1 0 1.8 0.4 0.7 0.4 1.1 1.2 0.5 0.8 0.5 2.1v6.2h-2v-6q0.1-1.1-0.5-1.7-0.6-0.6-1.6-0.6-0.6 0-1.2 0.3-0.5 0.3-0.8 0.8-0.3 0.6-0.3 1.4zm11.8 6q-1 0-1.7-0.3-0.8-0.4-1.2-1-0.4-0.7-0.4-1.7 0-0.8 0.3-1.3 0.3-0.6 0.8-0.9 0.6-0.3 1.2-0.5 0.7-0.1 1.4-0.2 0.9-0.1 1.4-0.2 0.6 0 0.8-0.2 0.3-0.2 0.3-0.5 0-0.9-0.5-1.3-0.4-0.5-1.4-0.5-0.9 0-1.5 0.4-0.5 0.5-0.8 1l-1.7-0.4q0.3-0.9 0.9-1.5 0.6-0.5 1.4-0.8 0.8-0.2 1.7-0.2 0.6 0 1.3 0.1 0.6 0.1 1.2 0.5 0.6 0.4 0.9 1 0.4 0.7 0.4 1.8v6.5h-1.9v-1.3q-0.2 0.3-0.6 0.7-0.4 0.3-0.9 0.6-0.6 0.2-1.4 0.2zm0.4-1.5q0.8 0 1.3-0.3 0.6-0.3 0.9-0.8 0.3-0.6 0.3-1.1v-1.3q-0.1 0.1-0.4 0.2-0.3 0.1-0.7 0.1-0.3 0.1-0.7 0.1-0.3 0.1-0.6 0.1-0.5 0.1-1 0.3-0.4 0.1-0.7 0.4-0.3 0.3-0.3 0.9 0 0.7 0.5 1 0.6 0.4 1.4 0.4zm11.5-8.5v1.5h-2v5.4q0 0.6 0.2 0.9 0.2 0.2 0.4 0.3 0.3 0.1 0.6 0.1 0.2 0 0.4 0 0.2 0 0.3-0.1l0.3 1.6q-0.1 0.1-0.5 0.2-0.3 0-0.7 0-0.8 0-1.4-0.2-0.7-0.3-1.1-0.9-0.4-0.6-0.4-1.5v-5.8h-1.4v-1.5h1.4v-2.4h1.9v2.4zm6.4-1.6v-1.7h10.1v1.7h-4v11.4h-2v-11.4zm11.2 11.4v-9.8h1.8v1.5h0.1q0.3-0.8 1-1.2 0.7-0.5 1.5-0.5 0.2 0 0.5 0 0.2 0.1 0.3 0.1v1.8q-0.1 0-0.4-0.1-0.3 0-0.6 0-0.6 0-1.2 0.3-0.5 0.3-0.8 0.8-0.3 0.5-0.3 1.1v6zm9.7 0.2q-1 0-1.7-0.3-0.8-0.4-1.2-1-0.4-0.7-0.4-1.7 0-0.8 0.3-1.3 0.3-0.6 0.8-0.9 0.6-0.3 1.3-0.5 0.6-0.1 1.3-0.2 0.9-0.1 1.5-0.2 0.5 0 0.8-0.2 0.2-0.2 0.2-0.5 0-0.9-0.5-1.3-0.4-0.5-1.4-0.5-0.9 0-1.5 0.4-0.5 0.5-0.7 1l-1.8-0.4q0.3-0.9 0.9-1.5 0.6-0.5 1.4-0.8 0.8-0.2 1.7-0.2 0.6 0 1.3 0.1 0.6 0.1 1.2 0.5 0.6 0.4 1 1 0.3 0.7 0.3 1.8v6.5h-1.8v-1.3h-0.1q-0.2 0.3-0.6 0.7-0.3 0.3-0.9 0.6-0.6 0.2-1.4 0.2zm0.4-1.5q0.8 0 1.3-0.3 0.6-0.3 0.9-0.8 0.3-0.6 0.3-1.1v-1.3q-0.1 0.1-0.4 0.2-0.3 0.1-0.6 0.1-0.4 0.1-0.8 0.1-0.3 0.1-0.6 0.1-0.5 0.1-1 0.3-0.4 0.1-0.7 0.4-0.3 0.3-0.3 0.9 0 0.7 0.6 1 0.5 0.4 1.3 0.4zm10.6 1.5q-1.1 0-2.1-0.6-0.9-0.6-1.4-1.8-0.6-1.1-0.6-2.7 0-1.6 0.6-2.7 0.5-1.1 1.4-1.7 1-0.6 2.2-0.6 0.9 0 1.4 0.3 0.6 0.3 0.9 0.7 0.3 0.4 0.5 0.7h0.1v-4.9h1.9v13.1h-1.9v-1.5h-0.1q-0.2 0.3-0.5 0.7-0.3 0.4-0.9 0.7-0.6 0.3-1.5 0.3zm0.5-1.6q0.8 0 1.4-0.5 0.5-0.4 0.8-1.2 0.3-0.8 0.3-1.8 0-1-0.3-1.8-0.3-0.8-0.8-1.2-0.6-0.4-1.4-0.4-0.9 0-1.5 0.4-0.5 0.5-0.8 1.2-0.3 0.8-0.3 1.8 0 1 0.3 1.8 0.3 0.7 0.8 1.2 0.6 0.5 1.5 0.5zm7.1 1.4v-9.8h1.9v9.8zm1-11.3q-0.5 0-0.8-0.4-0.4-0.3-0.4-0.8 0-0.4 0.4-0.8 0.3-0.3 0.8-0.3 0.5 0 0.9 0.3 0.3 0.4 0.3 0.8 0 0.5-0.3 0.8-0.4 0.4-0.9 0.4zm5.4 5.5v5.8h-1.9v-9.8h1.9v1.6h0.1q0.3-0.8 1-1.3 0.8-0.4 1.9-0.4 1 0 1.7 0.4 0.8 0.4 1.2 1.2 0.4 0.8 0.4 2.1v6.2h-1.9v-6q0-1.1-0.5-1.7-0.6-0.6-1.6-0.6-0.6 0-1.2 0.3-0.5 0.3-0.8 0.8-0.3 0.6-0.3 1.4zm13 9.7q-1.2 0-2-0.3-0.8-0.3-1.4-0.8-0.5-0.5-0.8-1.1l1.7-0.7q0.1 0.3 0.4 0.6 0.3 0.3 0.8 0.5 0.5 0.2 1.3 0.2 1.1 0 1.8-0.5 0.7-0.5 0.7-1.7v-1.9h-0.1q-0.2 0.3-0.5 0.7-0.3 0.4-0.9 0.7-0.5 0.3-1.4 0.3-1.2 0-2.1-0.6-1-0.5-1.5-1.6-0.5-1.1-0.5-2.6 0-1.6 0.5-2.7 0.5-1.2 1.5-1.7 0.9-0.6 2.1-0.6 0.9 0 1.5 0.3 0.5 0.3 0.8 0.7 0.3 0.4 0.5 0.7h0.2v-1.6h1.8v10q0 1.3-0.6 2.1-0.5 0.8-1.5 1.2-1 0.4-2.3 0.4zm0-5.6q0.8 0 1.4-0.4 0.6-0.4 0.8-1.1 0.3-0.8 0.3-1.8 0-1-0.2-1.7-0.3-0.8-0.9-1.2-0.6-0.4-1.4-0.4-0.9 0-1.5 0.4-0.5 0.5-0.8 1.2-0.3 0.8-0.3 1.7 0 1 0.3 1.7 0.3 0.7 0.9 1.2 0.5 0.4 1.4 0.4z"/>
	</g>
	<g id="Layer">
		<path id="Layer" class="s0" d="m80.5 300c0-4.4 3.6-8 8-8h209c4.4 0 8 3.6 8 8v60c0 4.4-3.6 8-8 8h-209c-4.4 0-8-3.6-8-8z"/>
		<path id="Layer" class="s1" d="m106.5 322.5c0-0.8 0.7-1.5 1.5-1.5h1.5v16.5c0 0.8-0.7 1.5-1.5 1.5-0.8 0-1.5-0.7-1.5-1.5z"/>
		<path id="Layer" fill-rule="evenodd" class="s2" d="m111.5 321h12.8c0.8 0 1.3 1 0.7 1.7l-3 3.3 3 3.3c0.6 0.7 0.1 1.7-0.7 1.7h-12.8z"/>
		<path id="Layer" fill-rule="evenodd" class="s3" d="m145.9 337v-13.1h4.7q1.5 0 2.5 0.5 1 0.6 1.5 1.5 0.5 0.9 0.5 2.1 0 1.2-0.5 2.1-0.5 0.9-1.5 1.4-0.2 0.1-0.4 0.2l2.9 5.3h-2.2l-2.7-5q0 0-0.1 0h-2.7v5zm2-5v-1.7h-0.9v1.7zm2.5-1.7q1 0 1.6-0.2 0.6-0.3 0.9-0.8 0.3-0.6 0.3-1.3 0-0.7-0.3-1.3-0.3-0.5-0.9-0.8-0.6-0.3-1.6-0.3h-2.5v4.7zm11 6.9q-1.4 0-2.4-0.6-1-0.7-1.6-1.8-0.6-1.1-0.6-2.7 0-1.5 0.6-2.6 0.6-1.2 1.6-1.8 1-0.6 2.4-0.6 1.4 0 2.4 0.6 1.1 0.6 1.6 1.8 0.6 1.1 0.6 2.6 0 1.6-0.6 2.7-0.5 1.1-1.6 1.8-1 0.6-2.4 0.6zm0-1.6q0.9 0 1.5-0.5 0.6-0.5 0.9-1.2 0.3-0.8 0.3-1.8 0-0.9-0.3-1.7-0.3-0.8-0.9-1.3-0.6-0.4-1.5-0.4-0.9 0-1.5 0.4-0.6 0.5-0.8 1.3-0.3 0.8-0.3 1.7 0 1 0.3 1.8 0.2 0.7 0.8 1.2 0.6 0.5 1.5 0.5zm8.6-11.7v13.1h-1.9v-13.1zm4.5 0v13.1h-1.9v-13.1zm6.7 13.3q-1.4 0-2.4-0.6-1-0.7-1.6-1.8-0.6-1.1-0.6-2.7 0-1.5 0.6-2.6 0.6-1.2 1.6-1.8 1-0.6 2.4-0.6 1.4 0 2.4 0.6 1 0.6 1.6 1.8 0.6 1.1 0.6 2.6 0 1.6-0.6 2.7-0.6 1.1-1.6 1.8-1 0.6-2.4 0.6zm0-1.6q0.9 0 1.5-0.5 0.6-0.5 0.9-1.2 0.3-0.8 0.3-1.8 0-0.9-0.3-1.7-0.3-0.8-0.9-1.3-0.6-0.4-1.5-0.4-0.9 0-1.5 0.4-0.6 0.5-0.9 1.3-0.2 0.8-0.2 1.7 0 1 0.2 1.8 0.3 0.7 0.9 1.2 0.6 0.5 1.5 0.5zm14.8-8.4l-3.6 9.8h-2l-3.6-9.8h2.1l2.4 7.5h0.1l2.5-7.5zm5.7 10q-1.4 0-2.5-0.6-1-0.6-1.6-1.8-0.6-1.1-0.5-2.6-0.1-1.6 0.5-2.7 0.6-1.2 1.6-1.8 1-0.6 2.4-0.6 0.8 0 1.6 0.2 0.8 0.3 1.4 0.9 0.6 0.6 1 1.5 0.3 1 0.3 2.3v0.7h-6.9q0 0.9 0.3 1.5 0.4 0.7 1 1.1 0.6 0.3 1.4 0.3 0.6 0 1-0.1 0.5-0.2 0.8-0.5 0.3-0.3 0.5-0.8l1.8 0.3q-0.2 0.8-0.8 1.4-0.5 0.6-1.4 1-0.8 0.3-1.9 0.3zm-2.7-4.5q0-0.1 0-0.2v-1.1q0-0.1 0-0.2h-0.9v1.5zm5.1-1.5q0-0.7-0.3-1.3-0.3-0.6-0.8-0.9-0.6-0.4-1.3-0.4-0.8 0-1.4 0.4-0.6 0.4-1 1.1-0.2 0.5-0.3 1.1zm4 5.8v-9.8h1.9v1.5h0.1q0.2-0.8 0.9-1.2 0.7-0.5 1.6-0.5 0.1 0 0.4 0 0.2 0.1 0.4 0.1v1.8q-0.1 0-0.4-0.1-0.3 0-0.6 0-0.7 0-1.2 0.3-0.5 0.3-0.9 0.8-0.3 0.5-0.3 1.1v6zm11.2-11.4v-1.7h10.1v1.7h-4v11.4h-2v-11.4zm11.2 11.4v-9.8h1.8v1.5h0.1q0.3-0.8 1-1.2 0.7-0.5 1.5-0.5 0.2 0 0.5 0 0.2 0.1 0.3 0.1v1.8q-0.1 0-0.4-0.1-0.3 0-0.5 0-0.7 0-1.3 0.3-0.5 0.3-0.8 0.8-0.3 0.5-0.3 1.1v6zm9.7 0.2q-1 0-1.7-0.3-0.8-0.4-1.2-1-0.4-0.7-0.4-1.7 0-0.8 0.3-1.3 0.3-0.6 0.8-0.9 0.6-0.3 1.3-0.5 0.6-0.1 1.3-0.2 0.9-0.1 1.5-0.2 0.5 0 0.8-0.2 0.2-0.2 0.2-0.5 0-0.9-0.5-1.3-0.4-0.5-1.4-0.5-0.9 0-1.5 0.4-0.5 0.5-0.7 1l-1.8-0.4q0.3-0.9 0.9-1.5 0.6-0.5 1.4-0.8 0.8-0.2 1.7-0.2 0.6 0 1.3 0.1 0.6 0.1 1.2 0.5 0.6 0.4 1 1 0.3 0.7 0.3 1.8v6.5h-1.8v-1.3h-0.1q-0.2 0.3-0.6 0.7-0.3 0.3-0.9 0.6-0.6 0.2-1.4 0.2zm0.4-1.5q0.8 0 1.4-0.3 0.5-0.3 0.8-0.8 0.3-0.6 0.3-1.1v-1.3q-0.1 0.1-0.4 0.2-0.3 0.1-0.6 0.1-0.4 0.1-0.8 0.1-0.3 0.1-0.5 0.1-0.6 0.1-1.1 0.3-0.4 0.1-0.7 0.4-0.3 0.3-0.3 0.9 0 0.7 0.6 1 0.5 0.4 1.3 0.4zm10.6 1.5q-1.1 0-2.1-0.6-0.9-0.6-1.4-1.8-0.6-1.1-0.6-2.7 0-1.6 0.6-2.7 0.5-1.1 1.4-1.7 1-0.6 2.2-0.6 0.9 0 1.4 0.3 0.6 0.3 0.9 0.7 0.3 0.4 0.5 0.7h0.1v-4.9h1.9v13.1h-1.9v-1.5h-0.1q-0.2 0.3-0.5 0.7-0.3 0.4-0.9 0.7-0.6 0.3-1.5 0.3zm0.5-1.6q0.8 0 1.4-0.5 0.5-0.4 0.8-1.2 0.3-0.8 0.3-1.8 0-1-0.3-1.8-0.3-0.8-0.8-1.2-0.6-0.4-1.4-0.4-0.9 0-1.5 0.4-0.5 0.5-0.8 1.2-0.3 0.8-0.3 1.8 0 1 0.3 1.8 0.3 0.7 0.8 1.2 0.6 0.5 1.5 0.5zm11.4 1.6q-1.5 0-2.5-0.6-1.1-0.6-1.6-1.8-0.6-1.1-0.6-2.6 0-1.6 0.6-2.7 0.5-1.2 1.5-1.8 1.1-0.6 2.4-0.6 0.9 0 1.6 0.2 0.8 0.3 1.4 0.9 0.7 0.6 1 1.5 0.4 1 0.4 2.3v0.7h-7q0 0.9 0.4 1.5 0.3 0.7 0.9 1.1 0.7 0.3 1.5 0.3 0.5 0 1-0.1 0.4-0.2 0.8-0.5 0.3-0.3 0.5-0.8l1.8 0.3q-0.3 0.8-0.8 1.4-0.6 0.6-1.4 1-0.9 0.3-1.9 0.3zm-2.8-4.5q0-0.1 0-0.2v-1.1q0-0.1 0-0.2h-0.8v1.5zm5.1-1.5q0-0.7-0.3-1.3-0.3-0.6-0.9-0.9-0.5-0.4-1.3-0.4-0.8 0-1.4 0.4-0.6 0.4-0.9 1.1-0.3 0.5-0.3 1.1z"/>
	</g>
	<g id="Layer">
		<path id="Layer" class="s0" d="m160.5 416c0-4.4 3.6-8 8-8h209c4.4 0 8 3.6 8 8v60c0 4.4-3.6 8-8 8h-209c-4.4 0-8-3.6-8-8z"/>
		<path id="Layer" fill-rule="evenodd" class="s1" d="m187.5 442c0-1.1 0.9-2 2-2h14c1.1 0 2 0.9 2 2v4.1q-0.5-0.1-1-0.1c-3.3 0-6 2.7-6 6q0 0.5 0.1 1h-9.1c-1.1 0-2-0.9-2-2zm9 3.1l-6.1-3.3c-0.4-0.2-0.9 0-1.1 0.3-0.2 0.4 0 0.9 0.3 1.1l6.5 3.5c0.3 0.1 0.5 0.1 0.8 0l6.5-3.5c0.3-0.2 0.5-0.7 0.3-1.1-0.2-0.3-0.7-0.5-1.1-0.3z"/>
		<path id="Layer" class="s2" d="m204 454c-1.4 0-2.5-1.1-2.5-2.5 0-1.4 1.1-2.5 2.5-2.5 1.4 0 2.5 1.1 2.5 2.5 0 1.4-1.1 2.5-2.5 2.5z"/>
		<path id="Layer" fill-rule="evenodd" class="s3" d="m227 453h-2.1l4.8-13.1h2.2l4.8 13.1h-2.1l-1.2-3.5h0.8v-1.6h-1.4l-1.9-5.6h-0.1l-2 5.6h-1.4v1.6h0.8zm1.2-3.4l0.6-1.7h4l0.6 1.7zm17.4-4l-1.7 0.3q-0.2-0.3-0.4-0.6-0.2-0.3-0.6-0.5-0.4-0.2-1-0.2-0.8 0-1.4 0.4-0.5 0.3-0.5 0.9 0 0.5 0.4 0.8 0.3 0.3 1.1 0.5l1.6 0.3q1.4 0.4 2 1 0.7 0.7 0.7 1.7 0 0.9-0.5 1.6-0.5 0.7-1.4 1-0.9 0.4-2.1 0.4-1.7 0-2.7-0.7-1.1-0.7-1.3-2l1.8-0.3q0.2 0.8 0.8 1.1 0.5 0.4 1.4 0.4 0.9 0 1.5-0.4 0.5-0.4 0.5-1 0-0.4-0.3-0.7-0.4-0.3-1.1-0.5l-1.6-0.4q-1.4-0.3-2.1-1-0.6-0.7-0.6-1.7 0-0.9 0.5-1.5 0.5-0.7 1.3-1 0.9-0.4 2-0.4 1.6 0 2.5 0.7 0.9 0.7 1.2 1.8zm4.4 1.8l3.9-4.2h2.3l-4 4.2 4.2 5.6h-2.3l-3.4-4.4-0.9 1v3.4h-1.9v-13.1h1.9v7.5zm8.1-7.5h2.4l4.2 10.2h0.1l4.2-10.2h2.4v13.1h-1.9v-9.4h-0.1l-3.9 9.4h-1.5l-3.9-9.4h-0.1v9.4h-1.9zm20.2 13.3q-1.4 0-2.5-0.6-1-0.6-1.6-1.8-0.6-1.1-0.6-2.6 0-1.5 0.6-2.7 0.6-1.1 1.6-1.8 1-0.6 2.4-0.6 0.8 0 1.6 0.3 0.8 0.2 1.4 0.8 0.6 0.6 1 1.5 0.3 1 0.3 2.3v0.7h-6.9q0 0.9 0.3 1.5 0.4 0.7 1 1.1 0.6 0.3 1.4 0.3 0.6 0 1-0.1 0.5-0.2 0.8-0.5 0.3-0.3 0.5-0.8l1.8 0.4q-0.2 0.8-0.8 1.4-0.5 0.6-1.4 0.9-0.8 0.3-1.9 0.3zm-2.7-4.5q0-0.1 0-0.1v-1.2q0-0.1 0-0.1h-0.9v1.4zm5.1-1.4q0-0.8-0.3-1.4-0.3-0.6-0.8-0.9-0.6-0.3-1.3-0.3-0.8 0-1.4 0.4-0.6 0.3-1 1-0.2 0.5-0.3 1.2zm8.9 5.7v-13.1h8.2v1.7h-6.2v4h5.6v1.7h-5.6v5.7zm13.9 0.2q-1.4 0-2.5-0.6-1-0.6-1.6-1.8-0.6-1.1-0.6-2.6 0-1.5 0.6-2.7 0.6-1.1 1.6-1.8 1-0.6 2.4-0.6 0.8 0 1.6 0.3 0.8 0.2 1.4 0.8 0.6 0.6 1 1.5 0.3 1 0.3 2.3v0.7h-6.9q0 0.9 0.3 1.5 0.4 0.7 1 1.1 0.6 0.3 1.4 0.3 0.6 0 1-0.1 0.5-0.2 0.8-0.5 0.3-0.3 0.5-0.8l1.8 0.4q-0.2 0.8-0.8 1.4-0.5 0.6-1.4 0.9-0.8 0.3-1.9 0.3zm-2.7-4.5q0-0.1 0-0.1v-1.2q0-0.1 0-0.1h-0.9v1.4zm5.1-1.4q0-0.8-0.3-1.4-0.3-0.6-0.8-0.9-0.6-0.3-1.3-0.3-0.8 0-1.4 0.4-0.6 0.3-1 1-0.2 0.5-0.3 1.2zm6.9 5.9q-0.9 0-1.7-0.3-0.8-0.4-1.2-1-0.4-0.7-0.4-1.6 0-0.9 0.3-1.4 0.3-0.6 0.8-0.9 0.6-0.3 1.3-0.4 0.6-0.2 1.3-0.3 0.9-0.1 1.5-0.1 0.5-0.1 0.8-0.3 0.2-0.1 0.2-0.5 0-0.9-0.5-1.3-0.4-0.5-1.4-0.5-0.9 0-1.5 0.5-0.5 0.4-0.7 0.9l-1.8-0.4q0.3-0.9 0.9-1.5 0.6-0.5 1.4-0.8 0.8-0.2 1.7-0.2 0.6 0 1.3 0.1 0.6 0.2 1.2 0.5 0.6 0.4 1 1.1 0.3 0.6 0.3 1.7v6.5h-1.8v-1.3h-0.1q-0.2 0.4-0.6 0.7-0.3 0.4-0.9 0.6-0.6 0.2-1.4 0.2zm0.4-1.5q0.8 0 1.4-0.3 0.5-0.3 0.8-0.8 0.3-0.5 0.3-1.1v-1.3q-0.1 0.1-0.4 0.2-0.3 0.1-0.6 0.2-0.4 0-0.8 0.1-0.3 0-0.5 0-0.6 0.1-1.1 0.3-0.4 0.1-0.7 0.5-0.3 0.3-0.3 0.8 0 0.7 0.6 1.1 0.5 0.3 1.3 0.3zm11.6-8.5v1.5h-2.1v5.4q0 0.6 0.2 0.9 0.2 0.3 0.4 0.4 0.3 0.1 0.6 0.1 0.3 0 0.4-0.1 0.2 0 0.3 0l0.3 1.6q-0.1 0-0.4 0.1-0.3 0-0.8 0.1-0.8 0-1.4-0.3-0.7-0.3-1.1-0.9-0.4-0.6-0.4-1.5v-5.8h-1.4v-1.5h1.4v-2.3h1.9v2.3zm8.4 5.8v-5.8h1.9v9.8h-1.9v-1.7h-0.1q-0.3 0.8-1.1 1.3-0.7 0.6-1.8 0.6-1 0-1.7-0.5-0.7-0.4-1.1-1.2-0.4-0.8-0.4-2v-6.3h1.9v6q0 1 0.5 1.6 0.6 0.6 1.5 0.6 0.5 0 1-0.3 0.6-0.2 0.9-0.8 0.4-0.5 0.4-1.3zm4.5 4v-9.8h1.8v1.6h0.1q0.3-0.8 1-1.3 0.6-0.4 1.5-0.4 0.2 0 0.4 0 0.3 0 0.4 0v1.8q-0.1 0-0.4 0-0.3-0.1-0.6-0.1-0.7 0-1.2 0.3-0.5 0.3-0.8 0.8-0.3 0.5-0.3 1.1v6zm10.8 0.2q-1.5 0-2.5-0.6-1.1-0.6-1.6-1.8-0.6-1.1-0.6-2.6 0-1.5 0.6-2.7 0.5-1.1 1.5-1.8 1.1-0.6 2.4-0.6 0.9 0 1.6 0.3 0.8 0.2 1.4 0.8 0.7 0.6 1 1.5 0.4 1 0.4 2.3v0.7h-7q0 0.9 0.3 1.5 0.4 0.7 1 1.1 0.6 0.3 1.5 0.3 0.5 0 1-0.1 0.4-0.2 0.7-0.5 0.4-0.3 0.5-0.8l1.9 0.4q-0.3 0.8-0.8 1.4-0.6 0.6-1.4 0.9-0.9 0.3-1.9 0.3zm-2.8-4.5q0-0.1 0-0.1v-1.2q0-0.1 0-0.1h-0.8v1.4zm5.1-1.4q0-0.8-0.3-1.4-0.3-0.6-0.9-0.9-0.5-0.3-1.3-0.3-0.8 0-1.4 0.4-0.6 0.3-0.9 1-0.3 0.5-0.3 1.2z"/>
	</g>
</svg>