<?xml version="1.0" ?><!DOCTYPE svg  PUBLIC '-//W3C//DTD SVG 1.1//EN'  'http://www.w3.org/Graphics/SVG/1.1/DTD/svg11.dtd'><svg height="512px" style="enable-background:new 0 0 512 512;" version="1.1" viewBox="0 0 512 512" width="512px" xml:space="preserve" xmlns="http://www.w3.org/2000/svg" xmlns:xlink="http://www.w3.org/1999/xlink"><g id="_x31_69_x2C__Satellite_x2C__broadcast_x2C__broadcasting_x2C__communication_x2C__telecommunication"><g><path d="M332.43,102.214V100.9c0-20.586-8.416-39.326-21.994-52.873    c-13.578-13.578-32.287-22.025-52.87-22.025c-20.587,0-39.328,8.447-52.875,22.025c-9.135,9.104-15.926,20.555-19.428,33.318    h105.934c2.127,0,3.847,1.752,3.847,3.849c0,2.128-1.72,3.849-3.847,3.849H183.603c-0.593,3.879-0.937,7.821-0.937,11.857v1.313    H332.43z M88.274,304.666h338.58l-0.281-0.501l-0.063-0.156l-0.189-0.345l-0.249-0.406l-0.031-0.063l-0.281-0.469l-0.095-0.188    l-0.186-0.313l-0.565-0.938l-0.126-0.219l-0.154-0.251l-0.281-0.47l0,0l-0.284-0.469l-0.186-0.25l-0.127-0.22l-0.313-0.47v-0.031    l-0.312-0.438l-0.19-0.281l-0.091-0.156l-0.313-0.47l-0.063-0.063l-0.284-0.376l-0.186-0.313l-0.126-0.156l-0.313-0.438    l-0.063-0.094l-0.249-0.345l-0.249-0.345l-0.095-0.094l-0.344-0.438l-0.096-0.156l-0.217-0.281l-0.313-0.376l-0.031-0.063    l-0.688-0.876l-0.344-0.375l-0.031-0.032l-0.345-0.438l-0.157-0.188l-0.189-0.219l-0.372-0.438l0,0l-0.348-0.406l-0.187-0.22    l-0.189-0.188l-0.375-0.407l-0.028-0.031l-0.344-0.375l-0.221-0.25l-0.155-0.156l-0.375-0.407l-0.031-0.063l-0.345-0.344    l-0.252-0.251l-0.123-0.125l-0.407-0.406l-0.063-0.063l-0.313-0.313l-0.312-0.281l-0.095-0.094l-0.376-0.407l-0.126-0.094    l-0.281-0.281l-0.344-0.313l-0.063-0.063l-1.189-1.063l-0.031-0.031l-0.404-0.375l-0.189-0.156l-0.656-0.563    c-0.846-0.72-1.751-1.438-2.628-2.128l-0.376-0.281l-0.313-0.219l-0.126-0.125c-11.389-8.447-24.216-12.984-37.98-13.828    l-0.406-0.031h-0.281l-0.628-0.032h-0.028l-0.66-0.031h-0.186h-0.502l-0.407-0.03h-0.249h-0.656h-27.971h-0.127    c-61.914,0-123.892,0-185.806,0h-0.688h-0.249l-0.407,0.03h-0.47h-0.218l-0.656,0.031h-0.032l-0.625,0.032h-0.284l-0.375,0.031    l-0.53,0.03h-0.158l-0.656,0.032l-0.063,0.031l-0.593,0.031l-0.313,0.031l-0.344,0.031l-0.534,0.063h-0.126l-0.656,0.063    l-0.095,0.031l-0.53,0.063l-0.375,0.031l-0.281,0.063l-0.597,0.063h-0.063l-0.656,0.094l-0.154,0.031l-0.471,0.094l-0.375,0.063    l-0.877,0.125l-0.032,0.031l-0.656,0.094l-0.186,0.063l-0.439,0.062l-0.407,0.094l-0.218,0.063l-0.66,0.125l-0.625,0.126    l-0.217,0.062l-0.846,0.22l-0.186,0.031l-0.628,0.156h-0.032l-0.593,0.156l-0.25,0.094c-11.89,3.254-22.59,9.449-31.382,18.24    C95.848,292.715,91.622,298.408,88.274,304.666z M280.686,180.555c-5.913,5.912-14.111,9.572-23.12,9.572    c-9.044,0-17.239-3.66-23.152-9.572c-5.914-5.945-9.574-14.142-9.574-23.152c0-9.041,3.66-17.238,9.574-23.151    s14.108-9.573,23.152-9.573c9.04,0,17.207,3.66,23.148,9.573c5.913,5.913,9.574,14.11,9.574,23.151    C290.288,166.444,286.627,174.641,280.686,180.555z M257.565,182.432c6.913,0,13.202-2.785,17.705-7.321    c4.506-4.536,7.32-10.794,7.32-17.708s-2.814-13.172-7.32-17.707c-4.534-4.506-10.792-7.321-17.705-7.321    c-6.917,0-13.171,2.815-17.709,7.321c-4.538,4.535-7.321,10.793-7.321,17.707s2.783,13.203,7.321,17.708    C244.394,179.646,250.648,182.432,257.565,182.432z M332.43,229.172V110.223H182.666v118.949H332.43z M106.109,75.309V45.367    H66.125v29.941H106.109z M106.109,116.73V83.004H66.125v33.727H106.109z M106.109,157.434v-33.006H66.125v33.006H106.109z     M106.109,198.825v-33.694H66.125v33.694H106.109z M106.109,236.462v-29.94H66.125v29.94H106.109z M113.774,206.521v29.94h40.296    v-29.94H113.774z M113.774,165.131v33.694h40.296v-33.694H113.774z M113.774,124.428v33.006h40.296v-33.006H113.774z     M113.774,83.004v33.727h40.296V83.004H113.774z M113.774,45.367v29.941h40.296V45.367H113.774z M405.922,206.521v29.94h39.953    v-29.94H405.922z M405.922,165.131v33.694h39.953v-33.694H405.922z M405.922,124.428v33.006h39.953v-33.006H405.922z     M405.922,83.004v33.727h39.953V83.004H405.922z M405.922,45.367v29.941h39.953V45.367H405.922z M398.227,75.309V45.367h-40.266    v29.941H398.227z M398.227,116.73V83.004h-40.266v33.727H398.227z M398.227,157.434v-33.006h-40.266v33.006H398.227z     M398.227,198.825v-33.694h-40.266v33.694H398.227z M398.227,236.462v-29.94h-40.266v29.94H398.227z M264.978,482.15    c0,2.128-1.72,3.849-3.815,3.849c-2.127,0-3.85-1.721-3.85-3.849v-13.766c-11.574,0-23.338-0.156-37.26-0.469    c1.126-9.73,5.664-18.396,12.357-24.779c7.04-6.726,15.863-10.449,24.903-11.2v-23.84H80.079v-70.55    c0-8.729,1.625-17.145,4.566-24.873h345.836c2.941,7.729,4.566,16.145,4.566,24.873v70.55h-170.07v23.934    c8.949,0.97,17.613,4.85,24.468,11.639c6.317,6.289,10.605,14.642,11.764,23.965c-13.519,0.407-24.967,0.657-36.231,0.72V482.15z     M332.43,259.02v-22.15H182.666v22.15H332.43z" style="fill-rule:evenodd;clip-rule:evenodd;"/></g></g><g id="Layer_1"/></svg>