<?xml version="1.0" encoding="UTF-8"?>
<svg width="50px" height="50px" viewBox="0 0 50 50" version="1.1" xmlns="http://www.w3.org/2000/svg" xmlns:xlink="http://www.w3.org/1999/xlink">
    <!-- Generator: Sketch 64 (93537) - https://sketch.com -->
    <title>c50</title>
    <desc>Created with Sketch.</desc>
    <g id="Page-1" stroke="none" stroke-width="1" fill="none" fill-rule="evenodd">
        <g id="Artboard-Copy-4" transform="translate(-118.000000, -269.000000)">
            <g id="c50" transform="translate(118.000000, 269.000000)">
                <circle id="Oval" fill="#C7C5C5" cx="25" cy="25" r="25"></circle>
                <path d="M27.035,40.55 C32.345,40.55 35.945,38.03 38.465,34.61 L35.27,32.855 C33.56,35.42 30.455,37.22 27.035,37.22 C20.465,37.22 15.47,32.135 15.47,25.025 C15.47,17.87 20.465,12.83 27.035,12.83 C30.455,12.83 33.56,14.675 35.27,17.195 L38.42,15.44 C36.035,12.065 32.345,9.5 27.035,9.5 C18.395,9.5 11.6,15.8 11.6,25.025 C11.6,34.25 18.395,40.55 27.035,40.55 Z" id="C" fill="#6D6B6B" fill-rule="nonzero"></path>
            </g>
        </g>
    </g>
</svg>