<?xml version="1.0" encoding="UTF-8"?>
<svg width="16px" height="15px" viewBox="0 0 16 15" version="1.1" xmlns="http://www.w3.org/2000/svg" xmlns:xlink="http://www.w3.org/1999/xlink">
    <!-- Generator: Sketch 50.2 (55047) - http://www.bohemiancoding.com/sketch -->
    <title>chat</title>
    <desc>Created with Sketch.</desc>
    <defs></defs>
    <g id="Page-1" stroke="none" stroke-width="1" fill="none" fill-rule="evenodd">
        <g id="Artboard" transform="translate(-2046.000000, -1718.000000)" fill="#fff" fill-rule="nonzero">
            <g id="Group" transform="translate(2016.000000, 969.000000)">
                <g id="chat" transform="translate(30.000000, 749.000000)">
                    <path d="M13.1757535,0.010058309 L2.80112045,0.010058309 C1.25656022,0.010058309 0,1.23620991 0,2.74333819 L0,8.98736152 C0,10.4944898 1.25656022,11.7205977 2.80112045,11.7205977 L9.40921008,11.7206414 L12.5725042,14.8072303 C12.6797087,14.9118805 12.8229468,14.9673761 12.9687843,14.9673761 C13.0409412,14.9673761 13.1137255,14.9537318 13.183014,14.9256997 C13.3923585,14.8411224 13.5288739,14.6418805 13.5288739,14.4207289 L13.5288739,11.6989942 C14.9074286,11.5290962 15.9768739,10.3778134 15.9768739,8.98736152 L15.9768739,2.74333819 C15.9768739,1.23620991 14.7203137,0.010058309 13.1757535,0.010058309 Z M14.8564258,8.98740525 C14.8564258,9.89169096 14.1024986,10.6273469 13.1757535,10.6273469 L12.9686499,10.6273469 C12.6592717,10.6273469 12.4084258,10.8721574 12.4084258,11.1739942 L12.4084258,13.1009913 L10.037423,10.787449 C9.93236975,10.684898 9.78993838,10.6273469 9.64127731,10.6273469 L2.80112045,10.6273469 C1.87437535,10.6273469 1.12044818,9.89169096 1.12044818,8.98740525 L1.12044818,2.74338192 C1.12044818,1.83909621 1.87437535,1.10344023 2.80112045,1.10344023 L13.1757535,1.10344023 C14.1024986,1.10344023 14.8564258,1.83909621 14.8564258,2.74338192 L14.8564258,8.98740525 Z" id="Shape"></path>
                    <path d="M12.1116863,3.88088921 L3.86518768,3.88088921 C3.55580952,3.88088921 3.30496359,4.12561224 3.30496359,4.42753644 C3.30496359,4.72941691 3.55580952,4.97418367 3.86518768,4.97418367 L12.1116863,4.97418367 C12.4210644,4.97418367 12.6719104,4.72941691 12.6719104,4.42753644 C12.6719104,4.12561224 12.4211092,3.88088921 12.1116863,3.88088921 Z" id="Shape"></path>
                    <path d="M12.1116863,6.9421137 L3.86518768,6.9421137 C3.55580952,6.9421137 3.30496359,7.18683673 3.30496359,7.48876093 C3.30496359,7.79068513 3.55580952,8.03540816 3.86518768,8.03540816 L12.1116863,8.03540816 C12.4210644,8.03540816 12.6719104,7.7906414 12.6719104,7.48876093 C12.6719104,7.18688047 12.4211092,6.9421137 12.1116863,6.9421137 Z" id="Shape"></path>
                </g>
            </g>
        </g>
    </g>
</svg>