<svg height="480pt" viewBox="0 -24 480 480" width="480pt" xmlns="http://www.w3.org/2000/svg" style="fill:#fff;"><path d="m440 0h-400c-22.082031.0273438-39.9726562 17.917969-40 40v272c.0273438 22.082031 17.917969 39.972656 40 40h140.6875l-32 32h-36.6875c-4.417969 0-8 3.582031-8 8v32c0 4.417969 3.582031 8 8 8h256c4.417969 0 8-3.582031 8-8v-32c0-4.417969-3.582031-8-8-8h-36.6875l-32-32h140.6875c22.082031-.027344 39.972656-17.917969 40-40v-272c-.027344-22.082031-17.917969-39.9726562-40-40zm-80 400v16h-240v-16zm-51.3125-16h-137.375l32-32h73.375zm155.3125-72c0 13.253906-10.746094 24-24 24h-400c-13.253906 0-24-10.746094-24-24v-272c0-13.253906 10.746094-24 24-24h400c13.253906 0 24 10.746094 24 24zm0 0"/><path d="m448 280v-240c0-4.417969-3.582031-8-8-8h-400c-4.417969 0-8 3.582031-8 8v240c0 4.417969 3.582031 8 8 8h400c4.417969 0 8-3.582031 8-8zm-16-8h-384v-224h384zm0 0"/><path d="m114.339844 162.34375 80-80 11.3125 11.3125-80 80zm0 0"/><path d="m154.34375 234.34375 160-159.996094 11.3125 11.3125-159.996094 159.996094zm0 0"/><path d="m274.339844 226.339844 80-80 11.3125 11.3125-80 80zm0 0"/><path d="m264 312c0-13.253906-10.746094-24-24-24s-24 10.746094-24 24 10.746094 24 24 24 24-10.746094 24-24zm-24 8c-4.417969 0-8-3.582031-8-8s3.582031-8 8-8 8 3.582031 8 8-3.582031 8-8 8zm0 0"/><path d="m280 304h48v16h-48zm0 0"/><path d="m152 304h48v16h-48zm0 0"/></svg>