<svg width="15" height="14" viewBox="0 0 15 14" fill="none" xmlns="http://www.w3.org/2000/svg">
<path d="M1.95729 2.77791C1.45307 2.21437 1.20095 1.93259 1.19144 1.69312C1.18318 1.48509 1.27258 1.28515 1.43312 1.15259C1.61793 1 1.99602 1 2.75222 1H12.6475C13.4037 1 13.7818 1 13.9666 1.15259C14.1271 1.28515 14.2165 1.48509 14.2083 1.69312C14.1988 1.93259 13.9467 2.21437 13.4424 2.77791L9.63827 7.02962C9.53776 7.14196 9.4875 7.19813 9.45167 7.26205C9.41989 7.31875 9.39657 7.37978 9.38245 7.44323C9.36653 7.51476 9.36653 7.59013 9.36653 7.74087V11.3056C9.36653 11.436 9.36653 11.5011 9.3455 11.5575C9.32692 11.6073 9.2967 11.6519 9.25737 11.6877C9.21285 11.7281 9.15232 11.7524 9.03127 11.8008L6.7646 12.7074C6.51958 12.8054 6.39706 12.8545 6.29871 12.834C6.21271 12.8161 6.13723 12.765 6.0887 12.6918C6.0332 12.6081 6.0332 12.4762 6.0332 12.2122V7.74087C6.0332 7.59013 6.0332 7.51476 6.01728 7.44323C6.00316 7.37978 5.97984 7.31875 5.94806 7.26205C5.91222 7.19813 5.86197 7.14196 5.76145 7.02962L1.95729 2.77791Z" stroke="white" stroke-width="1.5" stroke-linecap="round" stroke-linejoin="round"/>
</svg>
