<?xml version="1.0" ?><svg enable-background="new 0 0 24 24" id="Layer_1" version="1.1" viewBox="0 0 24 24" xml:space="preserve" xmlns="http://www.w3.org/2000/svg" xmlns:xlink="http://www.w3.org/1999/xlink"><g><path d="M21,3h-2.5C18.2236328,3,18,3.2236328,18,3.5V6c0,0.5512695-0.4487305,1-1,1s-1-0.4487305-1-1   c0-0.4179688,0.2685547-0.7944336,0.6679688-0.9365234C16.8671875,4.9921875,17,4.8037109,17,4.5922852V1.5   C17,1.2236328,16.7763672,1,16.5,1S16,1.2236328,16,1.5V3H8.5C8.2236328,3,8,3.2236328,8,3.5V6c0,0.5512695-0.4487305,1-1,1   S6,6.5512695,6,6c0-0.4179688,0.2685547-0.7944336,0.6679688-0.9365234C6.8671875,4.9921875,7,4.8037109,7,4.5922852V1.5   C7,1.2236328,6.7763672,1,6.5,1S6,1.2236328,6,1.5V3H3C1.8969727,3,1,3.8969727,1,5v16c0,1.1030273,0.8969727,2,2,2h14.2915039   c0.2651367,0,0.5195313-0.1054688,0.7070313-0.2929688L22.7070313,18C22.8945313,17.8125,23,17.5581055,23,17.2929688V5   C23,3.8969727,22.1030273,3,21,3z M21,17h-2c-1.1030273,0-2,0.8969727-2,2v2H3V9h18V17z" fill="#000"/><path d="M12,20c2.5048828,0,4-1.4951172,3.9975586-4.0820313l-0.0014648-0.0288086   c0-0.0007324-0.0006104-0.0012207-0.0006104-0.0019531h0.0006104C15.9482422,13.1083984,14.2290039,10,12,10   c-2.2294922,0-3.9487305,3.1088867-3.9960938,5.8891602C8.0039063,15.8891602,8,15.963501,8,16C8,18.5048828,9.4951172,20,12,20z    M12,11c1.5149536,0,2.8601074,2.5167236,2.9838257,4.6785889C14.7632446,15.8721313,14.590332,16,14.2480469,16   c-0.3730469,0-0.5405273-0.1489258-0.7939453-0.3740234C13.1567383,15.3618164,12.7490234,15,11.9960938,15   c-0.7519531,0-1.1591797,0.3618164-1.4560547,0.6264648C10.2866211,15.8515625,10.1196289,16,9.7475586,16   c-0.3401489,0-0.512207-0.1271973-0.7315063-0.3197021C9.1389771,13.5181885,10.484375,11,12,11z" fill="#000"/></g><g/><g/><g/><g/><g/><g/><g/><g/><g/><g/><g/><g/><g/><g/><g/></svg>