<svg width="20" height="20" viewBox="0 0 20 20" fill="none" xmlns="http://www.w3.org/2000/svg">
<path opacity="0.4" fill-rule="evenodd" clip-rule="evenodd" d="M16.1416 4.4375C15.5749 3.87083 14.7749 3.5375 13.8333 3.42916V2.60416C13.8333 2.2625 13.5499 1.97916 13.2083 1.97916C12.8583 1.97916 12.5833 2.2625 12.5833 2.60416V4.75416C12.5833 5.00416 12.7333 5.2125 12.9416 5.3125C12.8666 5.35416 12.7749 5.37916 12.6833 5.37916C12.3333 5.37916 12.0583 5.09583 12.0583 4.75416V3.5375C12.0583 3.44545 11.9837 3.37083 11.8916 3.37083H7.77492V2.60416C7.77492 2.2625 7.49159 1.97916 7.14992 1.97916C6.79992 1.97916 6.52492 2.2625 6.52492 2.60416V4.75416C6.52492 5.00416 6.67492 5.2125 6.88325 5.3125C6.80825 5.35416 6.71659 5.37916 6.62492 5.37916C6.27492 5.37916 5.99992 5.09583 5.99992 4.75416V3.63023C5.99992 3.52861 5.90964 3.45042 5.80973 3.46898C3.92615 3.81886 2.83325 5.18185 2.83325 7.27083V14.0625C2.83325 16.5375 4.33325 18.0208 6.83325 18.0208H13.1749C15.6749 18.0208 17.1666 16.5625 17.1666 14.1125V7.27083C17.1749 6.09583 16.8166 5.1125 16.1416 4.4375Z" fill="#667085"/>
<path fill-rule="evenodd" clip-rule="evenodd" d="M13.0342 9.84866H9.71168C9.36668 9.84866 9.08668 9.56866 9.08668 9.22366C9.08668 8.87866 9.36668 8.59866 9.71168 8.59866H13.0342C13.3792 8.59866 13.6592 8.87866 13.6592 9.22366C13.6592 9.56866 13.3792 9.84866 13.0342 9.84866ZM13.0342 13.8662H9.71168C9.36668 13.8662 9.08668 13.5862 9.08668 13.2412C9.08668 12.8962 9.36668 12.6162 9.71168 12.6162H13.0342C13.3792 12.6162 13.6592 12.8962 13.6592 13.2412C13.6592 13.5862 13.3792 13.8662 13.0342 13.8662ZM7.20164 9.84866H6.96664C6.62164 9.84866 6.34164 9.56866 6.34164 9.22366C6.34164 8.87866 6.62164 8.59866 6.96664 8.59866H7.20164C7.54664 8.59866 7.82664 8.87866 7.82664 9.22366C7.82664 9.56866 7.54664 9.84866 7.20164 9.84866ZM7.20164 13.8662H6.96664C6.62164 13.8662 6.34164 13.5862 6.34164 13.2412C6.34164 12.8962 6.62164 12.6162 6.96664 12.6162H7.20164C7.54664 12.6162 7.82664 12.8962 7.82664 13.2412C7.82664 13.5862 7.54664 13.8662 7.20164 13.8662Z" fill="#667085"/>
</svg>
