<svg width="20" height="20" viewBox="0 0 20 20" fill="none" xmlns="http://www.w3.org/2000/svg">
<path fill-rule="evenodd" clip-rule="evenodd" d="M5.79434 8.81872C5.45834 8.81872 5.19434 8.54672 5.19434 8.21875C5.19434 7.88275 5.45834 7.61875 5.79434 7.61875H12.5863C12.9223 7.61875 13.1863 7.88275 13.1863 8.21875C13.1863 8.54672 12.9223 8.81872 12.5863 8.81872H5.79434Z" fill="#667085"/>
<path fill-rule="evenodd" clip-rule="evenodd" d="M15.7817 15.7049C15.6689 15.8921 15.4705 15.9969 15.2657 15.9969C15.1617 15.9969 15.0553 15.9697 14.9593 15.9121L13.9705 15.3217C13.7889 15.2145 13.6785 15.0185 13.6785 14.8073V13.5377C13.6785 13.2065 13.9473 12.9377 14.2785 12.9377C14.6097 12.9377 14.8785 13.2065 14.8785 13.5377V14.4665L15.5737 14.8825C15.8585 15.0521 15.9513 15.4201 15.7817 15.7049ZM14.2961 11.0625C12.3529 11.0625 10.7729 12.6433 10.7729 14.5865C10.7729 16.5289 12.3529 18.1097 14.2961 18.1097C16.2393 18.1097 17.8201 16.5289 17.8201 14.5865C17.8201 12.6433 16.2393 11.0625 14.2961 11.0625Z" fill="#667085"/>
<path opacity="0.4" d="M15.8499 10.1314C15.3611 9.95664 14.8387 9.86664 14.2983 9.86664C11.6903 9.86664 9.57025 11.9786 9.57025 14.5866C9.57025 15.4842 9.81761 16.3182 10.2559 17.0324C10.3238 17.1431 10.2467 17.2906 10.1169 17.2906H6.14627C3.74627 17.2906 2.31427 15.8746 2.31427 13.4906V6.97062C2.31427 5.14426 3.19758 3.90677 4.72413 3.44173C4.80123 3.41824 4.87756 3.45861 4.90821 3.52632V5.23512C4.90821 5.56649 5.17685 5.83512 5.50821 5.83512C5.83959 5.83512 6.10821 5.56649 6.10821 5.23512V2.49063C6.10821 2.30738 6.02607 2.14332 5.89659 2.03326C6.00135 1.94452 6.13626 1.89062 6.28227 1.89062C6.61027 1.89062 6.88227 2.16263 6.88227 2.49063V3.22662H10.5783C10.6667 3.22662 10.7383 3.29826 10.7383 3.38662V4.76262C10.7383 4.76443 10.7383 4.76624 10.7383 4.76805V5.23512C10.7383 5.56649 11.0069 5.83512 11.3383 5.83512C11.6697 5.83512 11.9383 5.56649 11.9383 5.23512V2.49063C11.9383 2.30409 11.8531 2.13743 11.7196 2.02738C11.8234 1.94214 11.9555 1.89062 12.0983 1.89062C12.4343 1.89062 12.6983 2.16263 12.6983 2.49063V3.26663C13.6823 3.34663 14.5063 3.67463 15.0823 4.25063C15.7303 4.90663 16.0743 5.84262 16.0743 6.97062V9.97784C16.0743 10.0922 15.9575 10.1699 15.8499 10.1314Z" fill="#667085"/>
<path d="M6.86641 2.49062C6.86641 2.15926 6.59778 1.89062 6.26641 1.89062C5.93504 1.89062 5.66641 2.15926 5.66641 2.49062V5.23512C5.66641 5.56649 5.93504 5.83512 6.26641 5.83512C6.59778 5.83512 6.86641 5.56649 6.86641 5.23512V2.49062Z" fill="#667085"/>
<path d="M12.6965 2.49062C12.6965 2.15926 12.4279 1.89062 12.0965 1.89062C11.7651 1.89062 11.4965 2.15926 11.4965 2.49062V5.23512C11.4965 5.56649 11.7651 5.83512 12.0965 5.83512C12.4279 5.83512 12.6965 5.56649 12.6965 5.23512V2.49062Z" fill="#667085"/>
</svg>
