<svg width="32" height="32" viewBox="0 0 32 32" fill="none" xmlns="http://www.w3.org/2000/svg">
<rect width="32" height="32" rx="16" fill="#242C60" fill-opacity="0.13"/>
<path opacity="0.4" fill-rule="evenodd" clip-rule="evenodd" d="M22.1416 10.4375C21.5749 9.87083 20.7749 9.5375 19.8333 9.42916V8.60416C19.8333 8.2625 19.5499 7.97916 19.2083 7.97916C18.8583 7.97916 18.5833 8.2625 18.5833 8.60416V10.7542C18.5833 11.0042 18.7333 11.2125 18.9416 11.3125C18.8666 11.3542 18.7749 11.3792 18.6833 11.3792C18.3333 11.3792 18.0583 11.0958 18.0583 10.7542V9.5375C18.0583 9.44545 17.9837 9.37083 17.8916 9.37083H13.7749V8.60416C13.7749 8.2625 13.4916 7.97916 13.1499 7.97916C12.7999 7.97916 12.5249 8.2625 12.5249 8.60416V10.7542C12.5249 11.0042 12.6749 11.2125 12.8833 11.3125C12.8083 11.3542 12.7166 11.3792 12.6249 11.3792C12.2749 11.3792 11.9999 11.0958 11.9999 10.7542V9.63023C11.9999 9.52861 11.9096 9.45042 11.8097 9.46898C9.92615 9.81886 8.83325 11.1818 8.83325 13.2708V20.0625C8.83325 22.5375 10.3333 24.0208 12.8333 24.0208H19.1749C21.6749 24.0208 23.1666 22.5625 23.1666 20.1125V13.2708C23.1749 12.0958 22.8166 11.1125 22.1416 10.4375Z" fill="#667085"/>
<path fill-rule="evenodd" clip-rule="evenodd" d="M19.0342 15.8487H15.7117C15.3667 15.8487 15.0867 15.5687 15.0867 15.2237C15.0867 14.8787 15.3667 14.5987 15.7117 14.5987H19.0342C19.3792 14.5987 19.6592 14.8787 19.6592 15.2237C19.6592 15.5687 19.3792 15.8487 19.0342 15.8487ZM19.0342 19.8662H15.7117C15.3667 19.8662 15.0867 19.5862 15.0867 19.2412C15.0867 18.8962 15.3667 18.6162 15.7117 18.6162H19.0342C19.3792 18.6162 19.6592 18.8962 19.6592 19.2412C19.6592 19.5862 19.3792 19.8662 19.0342 19.8662ZM13.2016 15.8487H12.9666C12.6216 15.8487 12.3416 15.5687 12.3416 15.2237C12.3416 14.8787 12.6216 14.5987 12.9666 14.5987H13.2016C13.5466 14.5987 13.8266 14.8787 13.8266 15.2237C13.8266 15.5687 13.5466 15.8487 13.2016 15.8487ZM13.2016 19.8662H12.9666C12.6216 19.8662 12.3416 19.5862 12.3416 19.2412C12.3416 18.8962 12.6216 18.6162 12.9666 18.6162H13.2016C13.5466 18.6162 13.8266 18.8962 13.8266 19.2412C13.8266 19.5862 13.5466 19.8662 13.2016 19.8662Z" fill="#667085"/>
</svg>
