<svg width="16" height="20" viewBox="0 0 16 20" fill="none" xmlns="http://www.w3.org/2000/svg">
<path d="M9.66683 1.89128V5.33339C9.66683 5.8001 9.66683 6.03346 9.75766 6.21172C9.83755 6.36852 9.96504 6.496 10.1218 6.5759C10.3001 6.66673 10.5335 6.66673 11.0002 6.66673H14.4423M9.66683 14.1667H4.66683M11.3335 10.8333H4.66683M14.6668 8.32352V14.3333C14.6668 15.7335 14.6668 16.4335 14.3943 16.9683C14.1547 17.4387 13.7722 17.8212 13.3018 18.0608C12.767 18.3333 12.067 18.3333 10.6668 18.3333H5.3335C3.93336 18.3333 3.2333 18.3333 2.69852 18.0608C2.22811 17.8212 1.84566 17.4387 1.60598 16.9683C1.3335 16.4335 1.3335 15.7335 1.3335 14.3333V5.66667C1.3335 4.26653 1.3335 3.56647 1.60598 3.03169C1.84566 2.56128 2.22811 2.17883 2.69852 1.93915C3.2333 1.66667 3.93336 1.66667 5.3335 1.66667H8.00998C8.62145 1.66667 8.92719 1.66667 9.21491 1.73574C9.47 1.79698 9.71386 1.89799 9.93754 2.03507C10.1898 2.18967 10.406 2.40586 10.8384 2.83824L13.4953 5.49509C13.9276 5.92747 14.1438 6.14366 14.2984 6.39595C14.4355 6.61963 14.5365 6.8635 14.5978 7.11859C14.6668 7.40631 14.6668 7.71204 14.6668 8.32352Z" stroke="#242C60" stroke-width="1.5" stroke-linecap="round" stroke-linejoin="round"/>
</svg>
