<svg width="32" height="32" viewBox="0 0 32 32" fill="none" xmlns="http://www.w3.org/2000/svg">
<rect width="32" height="32" rx="16" fill="#242C60" fill-opacity="0.13"/>
<g opacity="0.4">
<path d="M20.5012 10.6151C20.8449 10.2714 20.8245 9.70395 20.4215 9.43215C19.1589 8.58051 17.6375 8.08334 16 8.08334C14.3624 8.08334 12.841 8.58054 11.5784 9.43224C11.1754 9.70404 11.155 10.2715 11.4987 10.6152L13.0806 12.1965C13.0875 12.2034 13.0942 12.2104 13.1007 12.2176L13.6166 12.7334C13.9 13.0169 14.3418 13.0471 14.7119 12.8935C15.1086 12.7289 15.5436 12.638 15.9998 12.638C16.4561 12.638 16.8911 12.7289 17.2878 12.8935C17.658 13.0472 18.0998 13.0169 18.3832 12.7335L18.8991 12.2176C18.9056 12.2104 18.9123 12.2034 18.9193 12.1965L20.5012 10.6151Z" fill="#667085"/>
<path d="M20.6951 22.3748C20.9409 22.1934 20.954 21.8378 20.738 21.6218L20.7307 21.6145L18.3828 19.2667C18.0994 18.9833 17.6577 18.953 17.2875 19.1066C16.8909 19.2712 16.4559 19.362 15.9998 19.362C15.5438 19.362 15.1091 19.2713 14.7126 19.1068C14.3425 18.9533 13.9008 18.9836 13.6175 19.2669L13.0889 19.7955L13.0817 19.8028L11.4992 21.3853C11.1556 21.729 11.1761 22.2964 11.579 22.5682C12.8415 23.4197 14.3627 23.9167 16 23.9167C17.7576 23.9167 19.3815 23.3439 20.6951 22.3748Z" fill="#667085"/>
</g>
<path d="M21.4586 20.4278C21.8023 20.7715 22.3698 20.7511 22.6416 20.3482C23.4932 19.0856 23.9903 17.5642 23.9903 15.9267C23.9903 14.2891 23.4932 12.7676 22.6415 11.505C22.3697 11.1021 21.8022 11.0816 21.4585 11.4254L19.8772 13.0072C19.8703 13.0141 19.8633 13.0208 19.8562 13.0273L19.3403 13.5432C19.0568 13.8266 19.0266 14.2684 19.1803 14.6386C19.3448 15.0353 19.4358 15.4703 19.4358 15.9264C19.4358 16.3827 19.3448 16.8178 19.1802 17.2144C19.0265 17.5846 19.0568 18.0263 19.3402 18.3098L19.8562 18.8258C19.8633 18.8323 19.8703 18.8389 19.8772 18.8458L21.4586 20.4278Z" fill="#667085"/>
<path d="M9.69889 20.6217C9.88027 20.8675 10.236 20.8807 10.452 20.6647L10.4592 20.6573L12.8071 18.3094C13.0905 18.026 13.1207 17.5843 12.9671 17.2142C12.8025 16.8175 12.7117 16.3826 12.7117 15.9264C12.7117 15.4705 12.8025 15.0357 12.9669 14.6392C13.1204 14.2691 13.0901 13.8275 12.8068 13.5441L12.2782 13.0156L12.2708 13.0083L10.6884 11.4259C10.3447 11.0822 9.77726 11.1027 9.5055 11.5057C8.65408 12.7681 8.15704 14.2893 8.15704 15.9267C8.15704 17.6842 8.72982 19.3081 9.69889 20.6217Z" fill="#667085"/>
</svg>
