<svg width="32" height="32" viewBox="0 0 32 32" fill="none" xmlns="http://www.w3.org/2000/svg">
<rect width="32" height="32" rx="16" fill="#54504C"/>
<path opacity="0.3" fill-rule="evenodd" clip-rule="evenodd" d="M12.6667 8.5H11.3333C10.2288 8.5 9.33334 9.39543 9.33334 10.5V23.1667C9.33334 24.2712 10.2288 25.1667 11.3333 25.1667H20.6667C21.7712 25.1667 22.6667 24.2712 22.6667 23.1667V10.5C22.6667 9.39543 21.7712 8.5 20.6667 8.5H19.3333V8.91667C19.3333 9.60702 18.7737 10.1667 18.0833 10.1667H13.9167C13.2263 10.1667 12.6667 9.60702 12.6667 8.91667V8.5Z" fill="white"/>
<path fill-rule="evenodd" clip-rule="evenodd" d="M16.8333 7.66666L18 7.66666C18.2761 7.66666 18.5 7.89052 18.5 8.16666V8.83333C18.5 9.10947 18.2761 9.33333 18 9.33333H14C13.7239 9.33333 13.5 9.10947 13.5 8.83333V8.16666C13.5 7.89052 13.7239 7.66666 14 7.66666L15.1667 7.66666C15.1667 7.20642 15.5398 6.83333 16 6.83333C16.4602 6.83333 16.8333 7.20642 16.8333 7.66666Z" fill="white"/>
<rect opacity="0.3" x="14.3333" y="13.5" width="5.83333" height="1.66667" rx="0.833333" fill="white"/>
<rect opacity="0.3" x="11.8333" y="13.5" width="1.66667" height="1.66667" rx="0.833333" fill="white"/>
<rect opacity="0.3" x="11.8333" y="16.8333" width="1.66667" height="1.66667" rx="0.833333" fill="white"/>
<rect opacity="0.3" x="14.3333" y="16.8333" width="5.83333" height="1.66667" rx="0.833333" fill="white"/>
<rect opacity="0.3" x="11.8333" y="20.1667" width="1.66667" height="1.66667" rx="0.833333" fill="white"/>
<rect opacity="0.3" x="14.3333" y="20.1667" width="5.83333" height="1.66667" rx="0.833333" fill="white"/>
</svg>
