<svg width="32" height="32" viewBox="0 0 32 32" fill="none" xmlns="http://www.w3.org/2000/svg">
<rect width="32" height="32" rx="16" fill="#54504C"/>
<path opacity="0.4" d="M14.0416 20.8125C14.0416 20.8075 14.0391 20.8042 14.0391 20.7992H17.9599C17.9599 20.8042 17.9574 20.8075 17.9574 20.8125L19.2049 20.7992H20.5599C21.3583 20.7992 22.0899 20.3967 22.5183 19.7225C22.9458 19.0492 22.9974 18.2158 22.6583 17.4933L22.2699 16.6683C22.0208 16.14 21.8891 15.5508 21.8891 14.9658L21.8883 13.8675C21.8883 10.6208 19.2466 7.97917 15.9999 7.97917C12.7532 7.97917 10.1116 10.6208 10.1116 13.8675L10.1107 14.9658C10.1107 15.55 9.97906 16.1383 9.72989 16.6683L9.34239 17.4933C9.00239 18.215 9.05406 19.0492 9.48156 19.7225C9.90906 20.3967 10.6416 20.7992 11.4399 20.7992H12.7941C12.7941 20.8042 12.7916 20.8075 12.7916 20.8125H14.0416Z" fill="white"/>
<path fill-rule="evenodd" clip-rule="evenodd" d="M14.0416 20.8129L12.7941 20.7996C12.7941 20.8021 12.7935 20.8042 12.7928 20.8063C12.7922 20.8083 12.7916 20.8104 12.7916 20.8129C12.7916 22.5821 14.2308 24.0213 15.9991 24.0213C17.7683 24.0213 19.2049 22.569 19.2049 20.7998L17.9599 20.7996C17.9599 20.8021 17.9593 20.8042 17.9587 20.8063C17.9581 20.8083 17.9574 20.8104 17.9574 20.8129C17.9574 21.8921 17.0791 22.7713 15.9991 22.7713C14.9199 22.7713 14.0416 21.8921 14.0416 20.8129Z" fill="white"/>
</svg>
