<svg version="1.2" xmlns="http://www.w3.org/2000/svg" viewBox="0 0 24 24" width="24" height="24"><style>.a{opacity:.3;fill:#98a2b3}.b{fill:#98a2b3}</style><path class="a" d="m11 2c0.5 0 1 0.5 1 1 0 0.5-0.5 1-1 1-0.5 0-5 0-5 0-1.1 0-2 0.9-2 2v12c0 1.1 0.9 2 2 2h5c0.6 0 1 0.4 1 1 0 0.6-0.4 1-1 1h-5c-2.2 0-4-1.8-4-4v-12c0-2.2 1.8-4 4-4 0 0 4.5 0 5 0z"/><path class="a" d="m21 11c0.6 0 1 0.4 1 1 0 0.6-0.4 1-1 1h-12c-0.6 0-1-0.4-1-1 0-0.6 0.4-1 1-1z"/><path class="b" d="m20.6 12l-4.3-4.3c-0.4-0.4-0.4-1 0-1.4 0.4-0.4 1-0.4 1.4 0l5 5c0.4 0.4 0.4 1 0 1.4l-4.5 5c-0.3 0.4-1 0.4-1.4 0-0.4-0.3-0.4-1 0-1.4z"/></svg>