<?xml version="1.0" encoding="UTF-8"?>
<svg width="29px" height="28px" viewBox="0 0 29 28" version="1.1" xmlns="http://www.w3.org/2000/svg" xmlns:xlink="http://www.w3.org/1999/xlink">
    <!-- Generator: Sketch 50.2 (55047) - http://www.bohemiancoding.com/sketch -->
    <title>Group 8</title>
    <desc>Created with Sketch.</desc>
    <defs></defs>
    <g id="Page-1" stroke="none" stroke-width="1" fill="none" fill-rule="evenodd">
        <g id="Artboard" transform="translate(-3049.000000, -1264.000000)">
            <g id="Group-9" transform="translate(2254.000000, 226.000000)">
                <g id="Group-4">
                    <g id="Group-8" transform="translate(795.000000, 1038.000000)">
                        <g id="Group-7-Copy" transform="translate(14.812030, 11.858299) rotate(-23.000000) translate(-14.812030, -11.858299) translate(1.812030, 4.858299)">
                            <rect id="Rectangle-3" stroke="#888888" stroke-width="1.41160714" fill="#E9E9E9" x="0.705803571" y="0.705803571" width="24.3294643" height="11.7648634" rx="0.830357143"></rect>
                            <ellipse id="Oval-3" fill="#979797" cx="4.85758931" cy="8.93529414" rx="1" ry="1"></ellipse>
                            <path d="M4.56696429,1.23870798 L4.56696429,5.8824317 C4.56696429,6.04293947 4.69708154,6.17305672 4.85758931,6.17305672 C5.01809707,6.17305672 5.14821433,6.04293947 5.14821433,5.8824317 L5.14821433,1.23870798 L4.56696429,1.23870798 Z" id="Rectangle-4" stroke="#888888" stroke-width="0.830357143" fill="#D8D8D8"></path>
                            <rect id="Rectangle-5" stroke="#888888" stroke-width="0.830357143" fill="#D8D8D8" x="8.71875" y="3.70929622" width="13.6482353" height="1" rx="0.5"></rect>
                            <rect id="Rectangle-5-Copy" stroke="#888888" stroke-width="0.830357143" fill="#D8D8D8" x="14.2874394" y="6.17988445" width="8.07954591" height="1" rx="0.5"></rect>
                            <rect id="Rectangle-5-Copy-2" stroke="#888888" stroke-width="0.830357143" fill="#D8D8D8" x="20.34375" y="8.65047269" width="1.66071429" height="1" rx="0.5"></rect>
                            <rect id="Rectangle-5-Copy-3" stroke="#888888" stroke-width="0.830357143" fill="#D8D8D8" x="17.0223214" y="8.65047269" width="1.66071429" height="1" rx="0.5"></rect>
                        </g>
                        <g id="Group-7" transform="translate(2.491071, 14.823529)">
                            <rect id="Rectangle-3" stroke="#888888" stroke-width="1.41160714" fill="#E9E9E9" x="0.705803571" y="0.705803571" width="24.3294643" height="11.7648634" rx="0.830357143"></rect>
                            <ellipse id="Oval-3" fill="#888888" cx="4.75" cy="8.74383302" rx="1" ry="1"></ellipse>
                            <path d="M4.41517857,1.41517857 L4.41517857,6.05890229 C4.41517857,6.21941006 4.54529582,6.34952731 4.70580359,6.34952731 C4.86631136,6.34952731 4.99642861,6.21941006 4.99642861,6.05890229 L4.99642861,1.41517857 L4.41517857,1.41517857 Z" id="Rectangle-4" stroke="#888888" stroke-width="0.830357143" fill="#888888"></path>
                            <rect id="Rectangle-5" stroke="#888888" stroke-width="0.830357143" fill="#888888" x="8.71875" y="3.70929622" width="13.6482353" height="1" rx="0.5"></rect>
                            <rect id="Rectangle-5-Copy" stroke="#888888" stroke-width="0.830357143" fill="#888888" x="14.2874394" y="6.17988445" width="8.07954591" height="1" rx="0.5"></rect>
                            <rect id="Rectangle-5-Copy-2" stroke="#888888" stroke-width="0.830357143" fill="#888888" x="20.34375" y="8.65047269" width="1.66071429" height="1" rx="0.5"></rect>
                            <rect id="Rectangle-5-Copy-3" stroke="#888888" stroke-width="0.830357143" fill="#888888" x="17.0223214" y="8.65047269" width="1.66071429" height="1" rx="0.5"></rect>
                        </g>
                    </g>
                </g>
            </g>
        </g>
    </g>
</svg>