<svg width="22" height="20" viewBox="0 0 22 20" fill="none" xmlns="http://www.w3.org/2000/svg">
<path d="M18.3711 12.605L19.6856 12.0205C20.0768 11.8468 20.4093 11.5632 20.6426 11.2043C20.8759 10.8453 21.0001 10.4264 21 9.99829C21.0001 9.57018 20.8759 9.15124 20.6426 8.79229C20.4093 8.43335 20.0768 8.14981 19.6856 7.97607L18.3711 7.39162C17.9047 7.18358 17.5159 6.83362 17.26 6.39162C17.0034 5.94684 16.8941 5.43229 16.9478 4.92162L17.1 3.49162C17.145 3.06595 17.0656 2.63636 16.8713 2.25494C16.6771 1.87351 16.3763 1.55664 16.0056 1.34273C15.635 1.12856 15.2103 1.02652 14.7829 1.049C14.3555 1.07149 13.9438 1.21753 13.5978 1.4694L12.4344 2.31607C12.0171 2.61755 11.5148 2.77863 11 2.77607C10.4866 2.77616 9.98635 2.61357 9.57111 2.31162L8.40778 1.46496C8.06175 1.21308 7.65007 1.06704 7.22267 1.04456C6.79528 1.02208 6.37054 1.12411 6 1.33829C5.62923 1.5522 5.32849 1.86907 5.13423 2.25049C4.93996 2.63192 4.86053 3.06151 4.90555 3.48718L5.05778 4.91718C5.11141 5.42785 5.00212 5.9424 4.74556 6.38718C4.48825 6.83005 4.09736 7.18011 3.62889 7.38718L2.31444 7.97607C1.92317 8.14981 1.59071 8.43335 1.3574 8.79229C1.12408 9.15124 0.99993 9.57018 1 9.99829C0.99993 10.4264 1.12408 10.8453 1.3574 11.2043C1.59071 11.5632 1.92317 11.8468 2.31444 12.0205L3.62889 12.605C4.09736 12.812 4.48825 13.1621 4.74556 13.605C5.00212 14.0497 5.11141 14.5643 5.05778 15.075L4.90556 16.5094C4.86053 16.9351 4.93997 17.3647 5.13423 17.7461C5.32849 18.1275 5.62923 18.4444 6 18.6583C6.37054 18.8725 6.79528 18.9745 7.22267 18.952C7.65007 18.9295 8.06175 18.7835 8.40778 18.5316L9.57111 17.685C9.98635 17.383 10.4866 17.2204 11 17.2205C11.5134 17.2204 12.0137 17.383 12.4289 17.685L13.5922 18.5316C13.9382 18.7835 14.3499 18.9295 14.7773 18.952C15.2047 18.9745 15.6295 18.8725 16 18.6583C16.3706 18.4442 16.6712 18.1273 16.8654 17.7459C17.0596 17.3645 17.1392 16.935 17.0944 16.5094L16.9422 15.0794C16.8886 14.5687 16.9979 14.0542 17.2544 13.6094C17.511 13.1649 17.902 12.8132 18.3711 12.605Z" stroke="white" stroke-width="2" stroke-linecap="round" stroke-linejoin="round"/>
<path d="M14 10.0001C14 8.34322 12.6569 7.00008 11 7.00008C9.34315 7.00008 8 8.34322 8 10.0001C8 11.6569 9.34315 13.0001 11 13.0001C12.6569 13.0001 14 11.6569 14 10.0001Z" stroke="white" stroke-width="2" stroke-linecap="round" stroke-linejoin="round"/>
</svg>
